<mxfile host="app.diagrams.net" modified="2021-04-12T01:43:11.283Z" agent="5.0 (Windows NT 10.0; WOW64) AppleWebKit/537.36 (KHTML, like Gecko) Chrome/69.0.3947.100 Safari/537.36" etag="ycFcrCtNAohcJozskJiz" version="14.5.10" type="github">
  <diagram id="ZzwQvL3PUGzCXsW_txjU" name="Page-1">
    <mxGraphModel dx="663" dy="411" grid="1" gridSize="10" guides="1" tooltips="1" connect="1" arrows="1" fold="1" page="1" pageScale="1" pageWidth="827" pageHeight="1169" math="0" shadow="0">
      <root>
        <mxCell id="0" />
        <mxCell id="1" parent="0" />
        <mxCell id="-77W6OGmcSj-kLPAqjG--19" style="edgeStyle=orthogonalEdgeStyle;rounded=0;orthogonalLoop=1;jettySize=auto;html=1;exitX=1;exitY=0.5;exitDx=0;exitDy=0;entryX=0;entryY=0.5;entryDx=0;entryDy=0;strokeColor=#78C1D3;" edge="1" parent="1" source="-77W6OGmcSj-kLPAqjG--1" target="-77W6OGmcSj-kLPAqjG--2">
          <mxGeometry relative="1" as="geometry">
            <Array as="points">
              <mxPoint x="120" y="330" />
              <mxPoint x="120" y="195" />
            </Array>
          </mxGeometry>
        </mxCell>
        <mxCell id="-77W6OGmcSj-kLPAqjG--20" style="edgeStyle=orthogonalEdgeStyle;rounded=0;orthogonalLoop=1;jettySize=auto;html=1;exitX=1;exitY=0.5;exitDx=0;exitDy=0;entryX=0;entryY=0.5;entryDx=0;entryDy=0;strokeColor=#78C1D3;" edge="1" parent="1" source="-77W6OGmcSj-kLPAqjG--1" target="-77W6OGmcSj-kLPAqjG--23">
          <mxGeometry relative="1" as="geometry">
            <mxPoint x="390" y="450" as="targetPoint" />
            <Array as="points">
              <mxPoint x="120" y="330" />
              <mxPoint x="120" y="450" />
            </Array>
          </mxGeometry>
        </mxCell>
        <mxCell id="-77W6OGmcSj-kLPAqjG--1" value="" style="rounded=0;whiteSpace=wrap;html=1;strokeColor=#23445d;fillColor=#78C1D3;" vertex="1" parent="1">
          <mxGeometry x="30" y="300" width="60" height="60" as="geometry" />
        </mxCell>
        <mxCell id="-77W6OGmcSj-kLPAqjG--30" style="edgeStyle=orthogonalEdgeStyle;rounded=0;orthogonalLoop=1;jettySize=auto;html=1;exitX=1;exitY=0.5;exitDx=0;exitDy=0;entryX=0;entryY=0.566;entryDx=0;entryDy=0;entryPerimeter=0;strokeColor=#BAC8D3;" edge="1" parent="1" source="-77W6OGmcSj-kLPAqjG--2" target="-77W6OGmcSj-kLPAqjG--7">
          <mxGeometry relative="1" as="geometry" />
        </mxCell>
        <mxCell id="-77W6OGmcSj-kLPAqjG--2" value="1*1conv" style="rounded=1;whiteSpace=wrap;html=1;strokeColor=#23445d;fillColor=#BAC8D3;" vertex="1" parent="1">
          <mxGeometry x="140" y="180" width="50" height="30" as="geometry" />
        </mxCell>
        <mxCell id="-77W6OGmcSj-kLPAqjG--31" style="edgeStyle=orthogonalEdgeStyle;rounded=0;orthogonalLoop=1;jettySize=auto;html=1;exitX=1;exitY=0.5;exitDx=0;exitDy=0;fillColor=#fad7ac;strokeColor=#F19C99;" edge="1" parent="1" source="-77W6OGmcSj-kLPAqjG--3" target="-77W6OGmcSj-kLPAqjG--8">
          <mxGeometry relative="1" as="geometry" />
        </mxCell>
        <mxCell id="-77W6OGmcSj-kLPAqjG--3" value="3*3&lt;br&gt;conv&lt;br&gt;rate=2" style="rounded=1;whiteSpace=wrap;html=1;strokeColor=#ae4132;fillColor=#FAD9D5;" vertex="1" parent="1">
          <mxGeometry x="240" y="240" width="50" height="60" as="geometry" />
        </mxCell>
        <mxCell id="-77W6OGmcSj-kLPAqjG--32" style="edgeStyle=orthogonalEdgeStyle;rounded=0;orthogonalLoop=1;jettySize=auto;html=1;exitX=1;exitY=0.5;exitDx=0;exitDy=0;entryX=0.051;entryY=0.491;entryDx=0;entryDy=0;entryPerimeter=0;strokeColor=#FFCE9F;" edge="1" parent="1" source="-77W6OGmcSj-kLPAqjG--4" target="-77W6OGmcSj-kLPAqjG--9">
          <mxGeometry relative="1" as="geometry" />
        </mxCell>
        <mxCell id="-77W6OGmcSj-kLPAqjG--4" value="3*3&lt;br&gt;conv&lt;br&gt;rate=4" style="rounded=1;whiteSpace=wrap;html=1;strokeColor=#b46504;fillColor=#FAD7AC;" vertex="1" parent="1">
          <mxGeometry x="350" y="330" width="50" height="60" as="geometry" />
        </mxCell>
        <mxCell id="-77W6OGmcSj-kLPAqjG--45" style="edgeStyle=orthogonalEdgeStyle;rounded=0;orthogonalLoop=1;jettySize=auto;html=1;exitX=1;exitY=0.5;exitDx=0;exitDy=0;entryX=0.006;entryY=0.488;entryDx=0;entryDy=0;entryPerimeter=0;strokeColor=#56517e;fillColor=#d0cee2;" edge="1" parent="1" source="-77W6OGmcSj-kLPAqjG--5" target="-77W6OGmcSj-kLPAqjG--10">
          <mxGeometry relative="1" as="geometry" />
        </mxCell>
        <mxCell id="-77W6OGmcSj-kLPAqjG--5" value="3*3&lt;br&gt;conv&lt;br&gt;rate=6" style="rounded=1;whiteSpace=wrap;html=1;strokeColor=#56517e;fillColor=#D0CEE2;" vertex="1" parent="1">
          <mxGeometry x="450" y="420" width="50" height="60" as="geometry" />
        </mxCell>
        <mxCell id="-77W6OGmcSj-kLPAqjG--6" value="Input&lt;br&gt;features" style="text;html=1;resizable=0;autosize=1;align=center;verticalAlign=middle;points=[];fillColor=none;strokeColor=none;rounded=0;" vertex="1" parent="1">
          <mxGeometry x="30" y="380" width="60" height="30" as="geometry" />
        </mxCell>
        <mxCell id="-77W6OGmcSj-kLPAqjG--40" style="edgeStyle=orthogonalEdgeStyle;rounded=0;orthogonalLoop=1;jettySize=auto;html=1;exitX=0;exitY=0;exitDx=25;exitDy=50;exitPerimeter=0;entryX=0;entryY=0.75;entryDx=0;entryDy=0;strokeColor=#BAC8D3;" edge="1" parent="1">
          <mxGeometry relative="1" as="geometry">
            <mxPoint x="555" y="197" as="sourcePoint" />
            <mxPoint x="670" y="196.75" as="targetPoint" />
            <Array as="points">
              <mxPoint x="640" y="197" />
              <mxPoint x="640" y="197" />
            </Array>
          </mxGeometry>
        </mxCell>
        <mxCell id="-77W6OGmcSj-kLPAqjG--7" value="" style="shape=cube;whiteSpace=wrap;html=1;boundedLbl=1;backgroundOutline=1;darkOpacity=0.05;darkOpacity2=0.1;fillColor=#bac8d3;strokeColor=#23445d;" vertex="1" parent="1">
          <mxGeometry x="530" y="150" width="25" height="80" as="geometry" />
        </mxCell>
        <mxCell id="-77W6OGmcSj-kLPAqjG--41" style="edgeStyle=orthogonalEdgeStyle;rounded=0;orthogonalLoop=1;jettySize=auto;html=1;exitX=0;exitY=0;exitDx=25;exitDy=50;exitPerimeter=0;entryX=0;entryY=0.5;entryDx=0;entryDy=0;strokeColor=#F19C99;" edge="1" parent="1">
          <mxGeometry relative="1" as="geometry">
            <mxPoint x="559" y="278" as="sourcePoint" />
            <mxPoint x="670" y="273" as="targetPoint" />
            <Array as="points">
              <mxPoint x="559" y="273" />
            </Array>
          </mxGeometry>
        </mxCell>
        <mxCell id="-77W6OGmcSj-kLPAqjG--8" value="" style="shape=cube;whiteSpace=wrap;html=1;boundedLbl=1;backgroundOutline=1;darkOpacity=0.05;darkOpacity2=0.1;fillColor=#fad9d5;strokeColor=#ae4132;" vertex="1" parent="1">
          <mxGeometry x="534" y="230" width="25" height="80" as="geometry" />
        </mxCell>
        <mxCell id="-77W6OGmcSj-kLPAqjG--42" style="edgeStyle=orthogonalEdgeStyle;rounded=0;orthogonalLoop=1;jettySize=auto;html=1;exitX=0;exitY=0;exitDx=25;exitDy=50;exitPerimeter=0;entryX=0;entryY=0.75;entryDx=0;entryDy=0;strokeColor=#FFCE9F;" edge="1" parent="1">
          <mxGeometry relative="1" as="geometry">
            <mxPoint x="559" y="363" as="sourcePoint" />
            <mxPoint x="670" y="361.75" as="targetPoint" />
            <Array as="points">
              <mxPoint x="559" y="362" />
            </Array>
          </mxGeometry>
        </mxCell>
        <mxCell id="-77W6OGmcSj-kLPAqjG--9" value="" style="shape=cube;whiteSpace=wrap;html=1;boundedLbl=1;backgroundOutline=1;darkOpacity=0.05;darkOpacity2=0.1;fillColor=#fad7ac;strokeColor=#b46504;" vertex="1" parent="1">
          <mxGeometry x="534" y="320" width="25" height="80" as="geometry" />
        </mxCell>
        <mxCell id="-77W6OGmcSj-kLPAqjG--46" style="edgeStyle=orthogonalEdgeStyle;rounded=0;orthogonalLoop=1;jettySize=auto;html=1;exitX=0;exitY=0;exitDx=25;exitDy=50;exitPerimeter=0;fillColor=#d0cee2;strokeColor=#56517E;" edge="1" parent="1" source="-77W6OGmcSj-kLPAqjG--10" target="-77W6OGmcSj-kLPAqjG--18">
          <mxGeometry relative="1" as="geometry" />
        </mxCell>
        <mxCell id="-77W6OGmcSj-kLPAqjG--10" value="" style="shape=cube;whiteSpace=wrap;html=1;boundedLbl=1;backgroundOutline=1;darkOpacity=0.05;darkOpacity2=0.1;fillColor=#d0cee2;strokeColor=#56517e;" vertex="1" parent="1">
          <mxGeometry x="534" y="410" width="25" height="80" as="geometry" />
        </mxCell>
        <mxCell id="-77W6OGmcSj-kLPAqjG--11" value="" style="shape=cube;whiteSpace=wrap;html=1;boundedLbl=1;backgroundOutline=1;darkOpacity=0.05;darkOpacity2=0.1;fillColor=#bac8d3;strokeColor=#23445d;" vertex="1" parent="1">
          <mxGeometry x="840" y="155" width="25" height="80" as="geometry" />
        </mxCell>
        <mxCell id="-77W6OGmcSj-kLPAqjG--12" value="" style="shape=cube;whiteSpace=wrap;html=1;boundedLbl=1;backgroundOutline=1;darkOpacity=0.05;darkOpacity2=0.1;fillColor=#fad9d5;strokeColor=#ae4132;" vertex="1" parent="1">
          <mxGeometry x="844" y="235" width="25" height="80" as="geometry" />
        </mxCell>
        <mxCell id="-77W6OGmcSj-kLPAqjG--13" value="" style="shape=cube;whiteSpace=wrap;html=1;boundedLbl=1;backgroundOutline=1;darkOpacity=0.05;darkOpacity2=0.1;fillColor=#fad7ac;strokeColor=#b46504;" vertex="1" parent="1">
          <mxGeometry x="844" y="325" width="25" height="80" as="geometry" />
        </mxCell>
        <mxCell id="-77W6OGmcSj-kLPAqjG--14" value="" style="shape=cube;whiteSpace=wrap;html=1;boundedLbl=1;backgroundOutline=1;darkOpacity=0.05;darkOpacity2=0.1;fillColor=#d0cee2;strokeColor=#56517e;" vertex="1" parent="1">
          <mxGeometry x="844" y="425" width="25" height="80" as="geometry" />
        </mxCell>
        <mxCell id="-77W6OGmcSj-kLPAqjG--60" style="edgeStyle=orthogonalEdgeStyle;rounded=0;orthogonalLoop=1;jettySize=auto;html=1;exitX=1;exitY=0.5;exitDx=0;exitDy=0;entryX=-0.097;entryY=0.489;entryDx=0;entryDy=0;entryPerimeter=0;strokeColor=#BAC8D3;" edge="1" parent="1" source="-77W6OGmcSj-kLPAqjG--15" target="-77W6OGmcSj-kLPAqjG--11">
          <mxGeometry relative="1" as="geometry" />
        </mxCell>
        <mxCell id="-77W6OGmcSj-kLPAqjG--15" value="Attention block" style="rounded=1;whiteSpace=wrap;html=1;strokeColor=#666666;gradientColor=#CCCCCC;fillColor=#EEF5F5;" vertex="1" parent="1">
          <mxGeometry x="670" y="181" width="90" height="25" as="geometry" />
        </mxCell>
        <mxCell id="-77W6OGmcSj-kLPAqjG--61" style="edgeStyle=orthogonalEdgeStyle;rounded=0;orthogonalLoop=1;jettySize=auto;html=1;exitX=1;exitY=0.5;exitDx=0;exitDy=0;strokeColor=#F19C99;" edge="1" parent="1" source="-77W6OGmcSj-kLPAqjG--16" target="-77W6OGmcSj-kLPAqjG--12">
          <mxGeometry relative="1" as="geometry" />
        </mxCell>
        <mxCell id="-77W6OGmcSj-kLPAqjG--16" value="Attention block" style="rounded=1;whiteSpace=wrap;html=1;strokeColor=#666666;gradientColor=#CCCCCC;fillColor=#EEF5F5;" vertex="1" parent="1">
          <mxGeometry x="670" y="262.5" width="90" height="25" as="geometry" />
        </mxCell>
        <mxCell id="-77W6OGmcSj-kLPAqjG--62" style="edgeStyle=orthogonalEdgeStyle;rounded=0;orthogonalLoop=1;jettySize=auto;html=1;exitX=1;exitY=0.5;exitDx=0;exitDy=0;entryX=0.04;entryY=0.45;entryDx=0;entryDy=0;entryPerimeter=0;strokeColor=#FFCE9F;" edge="1" parent="1" source="-77W6OGmcSj-kLPAqjG--17" target="-77W6OGmcSj-kLPAqjG--13">
          <mxGeometry relative="1" as="geometry" />
        </mxCell>
        <mxCell id="-77W6OGmcSj-kLPAqjG--17" value="Attention block" style="rounded=1;whiteSpace=wrap;html=1;strokeColor=#666666;gradientColor=#CCCCCC;fillColor=#EEF5F5;" vertex="1" parent="1">
          <mxGeometry x="670" y="347.5" width="90" height="25" as="geometry" />
        </mxCell>
        <mxCell id="-77W6OGmcSj-kLPAqjG--63" style="edgeStyle=orthogonalEdgeStyle;rounded=0;orthogonalLoop=1;jettySize=auto;html=1;exitX=1;exitY=0.5;exitDx=0;exitDy=0;entryX=0.017;entryY=0.443;entryDx=0;entryDy=0;entryPerimeter=0;strokeColor=#56517E;" edge="1" parent="1" source="-77W6OGmcSj-kLPAqjG--18" target="-77W6OGmcSj-kLPAqjG--14">
          <mxGeometry relative="1" as="geometry" />
        </mxCell>
        <mxCell id="-77W6OGmcSj-kLPAqjG--18" value="Attention block" style="rounded=1;whiteSpace=wrap;html=1;strokeColor=#666666;gradientColor=#CCCCCC;fillColor=#EEF5F5;" vertex="1" parent="1">
          <mxGeometry x="670" y="447" width="90" height="25" as="geometry" />
        </mxCell>
        <mxCell id="-77W6OGmcSj-kLPAqjG--28" style="edgeStyle=orthogonalEdgeStyle;rounded=0;orthogonalLoop=1;jettySize=auto;html=1;exitX=1;exitY=0.5;exitDx=0;exitDy=0;entryX=0;entryY=0.5;entryDx=0;entryDy=0;strokeColor=#BAC8D3;" edge="1" parent="1" source="-77W6OGmcSj-kLPAqjG--21" target="-77W6OGmcSj-kLPAqjG--3">
          <mxGeometry relative="1" as="geometry" />
        </mxCell>
        <mxCell id="-77W6OGmcSj-kLPAqjG--21" value="c" style="ellipse;whiteSpace=wrap;html=1;aspect=fixed;fillColor=none;" vertex="1" parent="1">
          <mxGeometry x="200" y="260" width="20" height="20" as="geometry" />
        </mxCell>
        <mxCell id="-77W6OGmcSj-kLPAqjG--29" style="edgeStyle=orthogonalEdgeStyle;rounded=0;orthogonalLoop=1;jettySize=auto;html=1;exitX=1;exitY=0.5;exitDx=0;exitDy=0;entryX=0;entryY=0.5;entryDx=0;entryDy=0;strokeColor=#FAD9D5;" edge="1" parent="1" source="-77W6OGmcSj-kLPAqjG--22" target="-77W6OGmcSj-kLPAqjG--4">
          <mxGeometry relative="1" as="geometry" />
        </mxCell>
        <mxCell id="-77W6OGmcSj-kLPAqjG--22" value="c" style="ellipse;whiteSpace=wrap;html=1;aspect=fixed;fillColor=none;" vertex="1" parent="1">
          <mxGeometry x="300" y="350" width="20" height="20" as="geometry" />
        </mxCell>
        <mxCell id="-77W6OGmcSj-kLPAqjG--24" style="edgeStyle=orthogonalEdgeStyle;rounded=0;orthogonalLoop=1;jettySize=auto;html=1;exitX=1;exitY=0.5;exitDx=0;exitDy=0;entryX=0;entryY=0.5;entryDx=0;entryDy=0;strokeColor=#FFCE9F;" edge="1" parent="1" source="-77W6OGmcSj-kLPAqjG--23" target="-77W6OGmcSj-kLPAqjG--5">
          <mxGeometry relative="1" as="geometry" />
        </mxCell>
        <mxCell id="-77W6OGmcSj-kLPAqjG--23" value="c" style="ellipse;whiteSpace=wrap;html=1;aspect=fixed;fillColor=none;" vertex="1" parent="1">
          <mxGeometry x="404" y="440" width="20" height="20" as="geometry" />
        </mxCell>
        <mxCell id="-77W6OGmcSj-kLPAqjG--25" value="" style="endArrow=classic;html=1;entryX=0;entryY=0.5;entryDx=0;entryDy=0;strokeColor=#78C1D3;" edge="1" parent="1" target="-77W6OGmcSj-kLPAqjG--21">
          <mxGeometry width="50" height="50" relative="1" as="geometry">
            <mxPoint x="120" y="270" as="sourcePoint" />
            <mxPoint x="290" y="320" as="targetPoint" />
          </mxGeometry>
        </mxCell>
        <mxCell id="-77W6OGmcSj-kLPAqjG--26" value="" style="endArrow=classic;html=1;entryX=0;entryY=0.5;entryDx=0;entryDy=0;strokeColor=#78C1D3;" edge="1" parent="1" target="-77W6OGmcSj-kLPAqjG--22">
          <mxGeometry width="50" height="50" relative="1" as="geometry">
            <mxPoint x="120" y="360" as="sourcePoint" />
            <mxPoint x="290" y="320" as="targetPoint" />
          </mxGeometry>
        </mxCell>
        <mxCell id="-77W6OGmcSj-kLPAqjG--34" value="" style="endArrow=classic;html=1;entryX=0.5;entryY=0;entryDx=0;entryDy=0;strokeColor=#BAC8D3;" edge="1" parent="1">
          <mxGeometry width="50" height="50" relative="1" as="geometry">
            <mxPoint x="210" y="197" as="sourcePoint" />
            <mxPoint x="210" y="257" as="targetPoint" />
          </mxGeometry>
        </mxCell>
        <mxCell id="-77W6OGmcSj-kLPAqjG--35" value="" style="endArrow=classic;html=1;strokeColor=#BAC8D3;" edge="1" parent="1">
          <mxGeometry width="50" height="50" relative="1" as="geometry">
            <mxPoint x="303" y="197" as="sourcePoint" />
            <mxPoint x="303" y="350" as="targetPoint" />
          </mxGeometry>
        </mxCell>
        <mxCell id="-77W6OGmcSj-kLPAqjG--36" value="" style="endArrow=classic;html=1;entryX=0.5;entryY=0;entryDx=0;entryDy=0;fillColor=#fad9d5;strokeColor=#F19C99;" edge="1" parent="1" target="-77W6OGmcSj-kLPAqjG--22">
          <mxGeometry width="50" height="50" relative="1" as="geometry">
            <mxPoint x="310" y="270" as="sourcePoint" />
            <mxPoint x="500" y="320" as="targetPoint" />
          </mxGeometry>
        </mxCell>
        <mxCell id="-77W6OGmcSj-kLPAqjG--37" value="" style="endArrow=classic;html=1;entryX=0;entryY=0;entryDx=0;entryDy=0;strokeColor=#BAC8D3;" edge="1" parent="1">
          <mxGeometry width="50" height="50" relative="1" as="geometry">
            <mxPoint x="407" y="197" as="sourcePoint" />
            <mxPoint x="406.9289321881347" y="439.9289321881346" as="targetPoint" />
          </mxGeometry>
        </mxCell>
        <mxCell id="-77W6OGmcSj-kLPAqjG--38" value="" style="endArrow=classic;html=1;entryX=0.5;entryY=0;entryDx=0;entryDy=0;strokeColor=#F19C99;" edge="1" parent="1" target="-77W6OGmcSj-kLPAqjG--23">
          <mxGeometry width="50" height="50" relative="1" as="geometry">
            <mxPoint x="414" y="270" as="sourcePoint" />
            <mxPoint x="500" y="320" as="targetPoint" />
          </mxGeometry>
        </mxCell>
        <mxCell id="-77W6OGmcSj-kLPAqjG--39" value="" style="endArrow=classic;html=1;strokeColor=#78C1D3;entryX=1;entryY=0;entryDx=0;entryDy=0;" edge="1" parent="1" target="-77W6OGmcSj-kLPAqjG--23">
          <mxGeometry width="50" height="50" relative="1" as="geometry">
            <mxPoint x="421" y="360" as="sourcePoint" />
            <mxPoint x="500" y="320" as="targetPoint" />
          </mxGeometry>
        </mxCell>
        <mxCell id="-77W6OGmcSj-kLPAqjG--48" value="" style="endArrow=classic;html=1;exitX=0;exitY=0;exitDx=25;exitDy=50;exitPerimeter=0;strokeColor=#BAC8D3;" edge="1" parent="1" source="-77W6OGmcSj-kLPAqjG--7">
          <mxGeometry width="50" height="50" relative="1" as="geometry">
            <mxPoint x="555" y="200" as="sourcePoint" />
            <mxPoint x="670" y="270" as="targetPoint" />
          </mxGeometry>
        </mxCell>
        <mxCell id="-77W6OGmcSj-kLPAqjG--49" value="" style="endArrow=classic;html=1;entryX=0;entryY=0.5;entryDx=0;entryDy=0;strokeColor=#BAC8D3;" edge="1" parent="1" target="-77W6OGmcSj-kLPAqjG--17">
          <mxGeometry width="50" height="50" relative="1" as="geometry">
            <mxPoint x="555" y="200" as="sourcePoint" />
            <mxPoint x="500" y="320" as="targetPoint" />
          </mxGeometry>
        </mxCell>
        <mxCell id="-77W6OGmcSj-kLPAqjG--50" value="" style="endArrow=classic;html=1;entryX=-0.037;entryY=0.377;entryDx=0;entryDy=0;entryPerimeter=0;exitX=0;exitY=0;exitDx=25;exitDy=50;exitPerimeter=0;strokeColor=#BAC8D3;" edge="1" parent="1" source="-77W6OGmcSj-kLPAqjG--7" target="-77W6OGmcSj-kLPAqjG--18">
          <mxGeometry width="50" height="50" relative="1" as="geometry">
            <mxPoint x="450" y="370" as="sourcePoint" />
            <mxPoint x="500" y="320" as="targetPoint" />
          </mxGeometry>
        </mxCell>
        <mxCell id="-77W6OGmcSj-kLPAqjG--51" value="" style="endArrow=classic;html=1;exitX=0.989;exitY=0.53;exitDx=0;exitDy=0;exitPerimeter=0;entryX=0;entryY=0.75;entryDx=0;entryDy=0;strokeColor=#F19C99;" edge="1" parent="1" source="-77W6OGmcSj-kLPAqjG--8" target="-77W6OGmcSj-kLPAqjG--15">
          <mxGeometry width="50" height="50" relative="1" as="geometry">
            <mxPoint x="450" y="370" as="sourcePoint" />
            <mxPoint x="500" y="320" as="targetPoint" />
          </mxGeometry>
        </mxCell>
        <mxCell id="-77W6OGmcSj-kLPAqjG--52" value="" style="endArrow=classic;html=1;strokeColor=#F19C99;" edge="1" parent="1">
          <mxGeometry width="50" height="50" relative="1" as="geometry">
            <mxPoint x="560" y="270" as="sourcePoint" />
            <mxPoint x="670" y="360" as="targetPoint" />
          </mxGeometry>
        </mxCell>
        <mxCell id="-77W6OGmcSj-kLPAqjG--53" value="" style="endArrow=classic;html=1;strokeColor=#F19C99;" edge="1" parent="1">
          <mxGeometry width="50" height="50" relative="1" as="geometry">
            <mxPoint x="560" y="270" as="sourcePoint" />
            <mxPoint x="670" y="460" as="targetPoint" />
          </mxGeometry>
        </mxCell>
        <mxCell id="-77W6OGmcSj-kLPAqjG--54" value="" style="endArrow=classic;html=1;fillColor=#fad7ac;strokeColor=#FFCE9F;" edge="1" parent="1">
          <mxGeometry width="50" height="50" relative="1" as="geometry">
            <mxPoint x="560" y="360" as="sourcePoint" />
            <mxPoint x="670" y="200" as="targetPoint" />
          </mxGeometry>
        </mxCell>
        <mxCell id="-77W6OGmcSj-kLPAqjG--55" value="" style="endArrow=classic;html=1;entryX=0;entryY=0.5;entryDx=0;entryDy=0;strokeColor=#FFCE9F;" edge="1" parent="1" target="-77W6OGmcSj-kLPAqjG--16">
          <mxGeometry width="50" height="50" relative="1" as="geometry">
            <mxPoint x="560" y="360" as="sourcePoint" />
            <mxPoint x="500" y="320" as="targetPoint" />
          </mxGeometry>
        </mxCell>
        <mxCell id="-77W6OGmcSj-kLPAqjG--56" value="" style="endArrow=classic;html=1;strokeColor=#FFCE9F;" edge="1" parent="1">
          <mxGeometry width="50" height="50" relative="1" as="geometry">
            <mxPoint x="559" y="364" as="sourcePoint" />
            <mxPoint x="670" y="460" as="targetPoint" />
          </mxGeometry>
        </mxCell>
        <mxCell id="-77W6OGmcSj-kLPAqjG--57" value="" style="endArrow=classic;html=1;entryX=0;entryY=1;entryDx=0;entryDy=0;strokeColor=#56517E;" edge="1" parent="1" target="-77W6OGmcSj-kLPAqjG--15">
          <mxGeometry width="50" height="50" relative="1" as="geometry">
            <mxPoint x="559" y="460" as="sourcePoint" />
            <mxPoint x="609" y="410" as="targetPoint" />
          </mxGeometry>
        </mxCell>
        <mxCell id="-77W6OGmcSj-kLPAqjG--58" value="" style="endArrow=classic;html=1;entryX=0;entryY=0.75;entryDx=0;entryDy=0;strokeColor=#56517E;" edge="1" parent="1" target="-77W6OGmcSj-kLPAqjG--16">
          <mxGeometry width="50" height="50" relative="1" as="geometry">
            <mxPoint x="559" y="460" as="sourcePoint" />
            <mxPoint x="609" y="410" as="targetPoint" />
          </mxGeometry>
        </mxCell>
        <mxCell id="-77W6OGmcSj-kLPAqjG--59" value="" style="endArrow=classic;html=1;entryX=-0.037;entryY=0.791;entryDx=0;entryDy=0;entryPerimeter=0;strokeColor=#56517E;" edge="1" parent="1" target="-77W6OGmcSj-kLPAqjG--17">
          <mxGeometry width="50" height="50" relative="1" as="geometry">
            <mxPoint x="559" y="460" as="sourcePoint" />
            <mxPoint x="609" y="410" as="targetPoint" />
          </mxGeometry>
        </mxCell>
        <mxCell id="-77W6OGmcSj-kLPAqjG--77" style="edgeStyle=orthogonalEdgeStyle;rounded=0;orthogonalLoop=1;jettySize=auto;html=1;exitX=1;exitY=0.5;exitDx=0;exitDy=0;entryX=0;entryY=0.469;entryDx=0;entryDy=0;entryPerimeter=0;strokeColor=#000000;" edge="1" parent="1" source="-77W6OGmcSj-kLPAqjG--64" target="-77W6OGmcSj-kLPAqjG--75">
          <mxGeometry relative="1" as="geometry" />
        </mxCell>
        <mxCell id="-77W6OGmcSj-kLPAqjG--64" value="c" style="ellipse;whiteSpace=wrap;html=1;aspect=fixed;fillColor=none;" vertex="1" parent="1">
          <mxGeometry x="970" y="315" width="20" height="20" as="geometry" />
        </mxCell>
        <mxCell id="-77W6OGmcSj-kLPAqjG--65" value="" style="endArrow=classic;html=1;strokeColor=#BAC8D3;exitX=0.977;exitY=0.496;exitDx=0;exitDy=0;exitPerimeter=0;" edge="1" parent="1" source="-77W6OGmcSj-kLPAqjG--11">
          <mxGeometry width="50" height="50" relative="1" as="geometry">
            <mxPoint x="920" y="370" as="sourcePoint" />
            <mxPoint x="970" y="320" as="targetPoint" />
          </mxGeometry>
        </mxCell>
        <mxCell id="-77W6OGmcSj-kLPAqjG--66" value="" style="endArrow=classic;html=1;strokeColor=#F19C99;" edge="1" parent="1" source="-77W6OGmcSj-kLPAqjG--12">
          <mxGeometry width="50" height="50" relative="1" as="geometry">
            <mxPoint x="920" y="370" as="sourcePoint" />
            <mxPoint x="970" y="320" as="targetPoint" />
          </mxGeometry>
        </mxCell>
        <mxCell id="-77W6OGmcSj-kLPAqjG--67" value="" style="endArrow=classic;html=1;strokeColor=#FFCE9F;" edge="1" parent="1">
          <mxGeometry width="50" height="50" relative="1" as="geometry">
            <mxPoint x="870" y="370" as="sourcePoint" />
            <mxPoint x="970" y="320" as="targetPoint" />
          </mxGeometry>
        </mxCell>
        <mxCell id="-77W6OGmcSj-kLPAqjG--68" value="" style="endArrow=classic;html=1;strokeColor=#56517E;" edge="1" parent="1">
          <mxGeometry width="50" height="50" relative="1" as="geometry">
            <mxPoint x="870" y="470" as="sourcePoint" />
            <mxPoint x="970" y="320" as="targetPoint" />
          </mxGeometry>
        </mxCell>
        <mxCell id="-77W6OGmcSj-kLPAqjG--72" value="" style="shape=cube;whiteSpace=wrap;html=1;boundedLbl=1;backgroundOutline=1;darkOpacity=0.05;darkOpacity2=0.1;fillColor=#d0cee2;strokeColor=#56517e;" vertex="1" parent="1">
          <mxGeometry x="1035" y="287.5" width="25" height="80" as="geometry" />
        </mxCell>
        <mxCell id="-77W6OGmcSj-kLPAqjG--73" value="" style="shape=cube;whiteSpace=wrap;html=1;boundedLbl=1;backgroundOutline=1;darkOpacity=0.05;darkOpacity2=0.1;fillColor=#fad7ac;strokeColor=#b46504;" vertex="1" parent="1">
          <mxGeometry x="1030" y="287.5" width="25" height="80" as="geometry" />
        </mxCell>
        <mxCell id="-77W6OGmcSj-kLPAqjG--74" value="" style="shape=cube;whiteSpace=wrap;html=1;boundedLbl=1;backgroundOutline=1;darkOpacity=0.05;darkOpacity2=0.1;strokeColor=#ae4132;fillColor=#fad9d5;" vertex="1" parent="1">
          <mxGeometry x="1025" y="287.5" width="25" height="80" as="geometry" />
        </mxCell>
        <mxCell id="-77W6OGmcSj-kLPAqjG--75" value="" style="shape=cube;whiteSpace=wrap;html=1;boundedLbl=1;backgroundOutline=1;darkOpacity=0.05;darkOpacity2=0.1;strokeColor=#56517e;fillColor=#BAC8D3;" vertex="1" parent="1">
          <mxGeometry x="1020" y="287.5" width="25" height="80" as="geometry" />
        </mxCell>
      </root>
    </mxGraphModel>
  </diagram>
</mxfile>
